<svg width="339" height="329" viewBox="0 0 339 329" fill="none" xmlns="http://www.w3.org/2000/svg">
<g id="imagen 1 1" clip-path="url(#clip0_1_3)">
<g id="imagen 1">
<g id="imagen">
<g id="hombre">
<path id="Vector" d="M157.354 40.5657C91.8914 56.0534 81.1656 104.474 71.2528 148.42C61.3399 192.367 24.0754 233.45 99.1886 250.936C174.302 268.423 285.892 244.645 304.498 175.028C323.105 105.411 251.742 112.313 200.95 90.475C150.158 68.6375 186.348 33.7225 157.354 40.5657Z" fill="#E7ECFF"/>
<path id="Vector_2" d="M183.495 64.6406C175.241 68.9089 170.636 44.9661 180.244 35.5813C189.852 26.1967 206.665 21.385 213.386 29.61C220.108 37.835 204.65 50.814 195.998 55.5187C187.346 60.2234 186.576 63.0445 183.495 64.6406Z" fill="#E7ECFF"/>
<path id="Vector_3" d="M84.2554 85.787C84.4924 69.0821 45.6706 84.142 34.1407 115.043C22.611 145.945 33.1334 168.44 48.8112 169.435C64.4891 170.43 66.6647 153.125 71.4389 129.034C76.2132 104.943 84.1201 95.1715 84.2554 85.787Z" fill="#E7ECFF"/>
<path id="Vector_4" d="M276.182 268.078C282.386 256.784 292.266 253.108 299.139 254.679C306.014 256.25 299.3 277.619 289.633 278.449C279.966 279.28 272.398 274.953 276.182 268.078Z" fill="#E7ECFF"/>
<g id="Vector_5" style="mix-blend-mode:multiply">
<g id="Vector_6" style="mix-blend-mode:multiply">
<g id="Vector_7" style="mix-blend-mode:multiply">
<path d="M35.7322 257.385L37.7639 280.761C37.7639 280.761 31.508 285.744 26.6997 285.744C26.6997 285.744 25.2013 276.088 35.7322 257.385Z" fill="#4B81EE"/>
</g>
</g>
</g>
<path id="Vector_6_2" d="M225.094 321.919C217.284 322.513 209.427 322.098 201.729 320.685C194.59 319.204 187.676 316.838 181.158 313.644L179.55 303.824C179.55 303.824 191.334 290.77 205.217 296.75C219.1 302.73 225.094 321.919 225.094 321.919Z" fill="#4B81EE"/>
<path id="Vector_7_2" d="M114.113 128.663C99.4506 130.918 92.2979 142.646 91.9845 148.93C91.6711 155.214 96.6825 179.305 98.3929 185.778C100.103 192.251 112.615 198.995 117.017 200.04C121.217 200.901 125.593 200.347 129.426 198.47C133.058 196.825 141.718 189.611 143.538 183.236C145.358 176.862 145.892 147.261 143.538 139.882C141.184 132.505 126.133 126.805 114.113 128.663Z" fill="url(#paint0_linear_1_3)"/>
<path id="Vector_8" d="M109.202 196.52L109.948 224.032C109.948 224.032 113.173 242.662 123.205 243.279C135.767 244.101 137.214 222.461 137.214 222.461L135.242 194.389C135.242 194.389 127.953 200.468 121.299 200.459C114.646 200.452 109.202 196.52 109.202 196.52Z" fill="url(#paint1_linear_1_3)"/>
<path id="Vector_9" style="mix-blend-mode:multiply" d="M93.9657 148.93C93.9657 148.93 96.894 136.518 114.062 135.556C131.23 134.594 137.909 140.137 140.177 144.094C142.446 148.05 145.308 154.844 145.308 154.844L144.512 135.927L133.702 130.992C133.702 130.992 111.031 128.976 102.795 132.899C94.5576 136.823 93.7786 142.293 93.9657 148.93Z" fill="url(#paint2_linear_1_3)"/>
<path id="Vector_10" d="M145.088 161.276C145.844 160.545 146.742 159.967 147.73 159.576C148.718 159.185 149.777 158.988 150.844 158.997C150.844 158.997 153.248 160.922 151.69 165.824C150.353 170.15 146.967 175.801 146.324 177.207C146.123 177.623 145.829 177.991 145.465 178.284C145.101 178.576 144.673 178.788 144.215 178.902C144.215 178.902 145.138 167.165 145.088 161.276Z" fill="url(#paint3_linear_1_3)"/>
<path id="Vector_11" d="M93.9657 164.986C93.1901 164.416 92.2448 164.107 91.2734 164.107C90.3019 164.107 89.3557 164.416 88.5818 164.986C89.1416 168.004 90.0442 170.953 91.2734 173.778C93.3895 178.762 94.5072 182.184 97.4781 182.151L93.9657 164.986Z" fill="url(#paint4_linear_1_3)"/>
<path id="Vector_12" style="mix-blend-mode:multiply" d="M145.096 166.762C145.096 166.762 148.583 163.184 150.404 162.831C152.224 162.476 150.92 167.527 149.802 170.159C148.685 172.791 148.558 173.037 148.558 173.037C148.558 173.037 150.81 166.646 150.124 165.208C149.439 163.768 148.288 164.385 148.245 164.969C148.202 165.553 149.439 168.67 147.72 171.746C146.002 174.823 145.79 175.604 145.316 174.008C144.842 172.413 146.315 169.805 146.357 168.25C146.399 166.696 145.096 166.762 145.096 166.762Z" fill="url(#paint5_linear_1_3)"/>
<path id="Vector_13" style="mix-blend-mode:multiply" d="M94.9137 169.435C94.9137 169.435 91.9845 167.263 90.8668 167.84C89.75 168.415 91.1297 173.736 93.6349 178.046C93.6349 178.046 91.0444 172.124 91.9419 170.718C92.8393 169.311 94.9224 171.755 93.957 171.862C91.0531 172.191 92.5851 176.229 94.8875 177.841C97.1908 179.453 94.5237 176.591 94.0919 174.049C93.661 171.507 95.2183 171.581 95.2183 171.581L94.9137 169.435Z" fill="url(#paint6_linear_1_3)"/>
<path id="Vector_14" d="M104.428 130.16C104.428 130.16 109.888 116.63 122.206 114.426C122.206 114.426 117.651 115.841 112.606 120.636C110.913 122.281 107.027 128.31 107.027 128.31C107.027 128.31 119.937 114.945 128.521 115.643C137.105 116.342 137.342 128.508 141.27 130.531C143.703 131.902 145.493 134.137 146.264 136.766C146.264 136.766 149.692 140.812 149.472 145.072C149.253 149.333 145.062 164.089 145.062 164.089C145.062 164.089 146.163 150.377 142.311 144.867C142.311 144.867 141.024 137.308 135.496 134.273C129.16 134.726 122.791 134.547 116.492 133.738C104.936 132.415 101.17 135.047 101.17 135.047C101.17 135.047 94.0328 140.581 94.1094 147.442C94.1094 147.442 91.417 152.541 94.219 166.228C94.219 166.228 87.7767 152.245 87.8872 146.529C87.9969 140.812 94.0328 135.202 94.0328 135.202C94.0328 135.202 89.0301 137.818 86.1689 141.281C86.1689 141.281 82.2072 134.141 100.848 132.398C102.294 132.129 103.577 131.328 104.428 130.16Z" fill="url(#paint7_linear_1_3)"/>
<path id="Vector_15" d="M109.677 214.27C109.677 214.27 100.365 224.502 93.0596 229.025C88.9736 231.584 84.7018 233.848 80.2765 235.802C80.2765 235.802 78.5835 292.135 86.3128 321.59H162.712C162.712 321.59 169.129 251.29 165.125 233.063C165.125 233.063 144.977 224.567 136.605 213.776L136.969 223.563C136.969 223.563 133.659 239.085 123.205 239.849C113.554 240.556 109.881 221.705 109.881 221.705L109.677 214.27Z" fill="url(#paint8_linear_1_3)"/>
<path id="Vector_16" d="M109.592 210.872L105.936 210.091C102.146 216.053 97.4354 221.413 91.968 225.982C85.5168 231.18 79.955 229.954 69.9578 235.802C69.9578 235.802 80.9624 264.351 80.1584 289.692C80.1584 289.692 81.9108 306.142 84.6363 321.59L166.471 321.128C166.471 321.128 171.788 301.388 172.109 282.471C172.109 282.471 176.342 246.593 185.204 233.047C173.497 227.602 164.837 227.914 154.89 223.399C144.944 218.883 138.205 207.607 138.205 207.607L136.207 208.512L136.639 213.759C136.639 213.759 143.411 221.219 146.231 228.276C149.617 236.904 139.813 321.573 139.813 321.573L108.695 321.112C108.695 321.112 100.518 236.954 101.635 228.992C102.752 221.031 109.711 214.236 109.711 214.236L109.592 210.872Z" fill="url(#paint9_linear_1_3)"/>
<path id="Vector_17" d="M69.9234 235.802V245.434L54.6099 270.011C54.6099 270.011 51.0037 259.647 50.8429 257.673C50.682 255.699 50.8429 252.293 50.8429 252.293L48.4302 250.426L48.8365 253.931C48.8365 253.931 50.1148 274.97 26.6997 284.478C26.6997 284.478 28.3927 269.623 35.7322 257.335L35.4105 255.797C35.4105 255.797 27.1822 267.312 24.7781 286.806L31.9905 290.096C31.9905 290.096 39.2115 310.313 48.6758 321.803L59.232 321.902C59.232 321.902 75.062 308.437 82.1986 287.563C82.1986 287.563 85.7286 262.056 69.9234 235.802Z" fill="url(#paint10_linear_1_3)"/>
<path id="Vector_18" d="M67.4943 188.295C67.4943 188.295 59.4775 200.139 57.9791 204.507C56.4808 208.874 57.6575 216.976 56.3707 218.842C56.3707 218.842 48.1424 225.801 47.1773 227.989C46.2123 230.176 47.1773 241.494 47.1773 241.494C43.9182 247.49 36.1724 249.358 36.1724 249.358C36.1724 249.358 35.4529 229.963 35.2074 229.494C34.9618 229.025 30.3821 226.204 30.3821 226.204C29.2375 223.512 28.2927 220.744 27.5547 217.922C26.6658 214.632 26.0394 211.423 25.6161 208.8C24.9981 205.05 24.7696 202.475 24.7696 202.475L24.1262 194.76C25.2436 189.776 28.2404 190.557 28.2404 190.557C28.5271 193.545 29.0938 196.503 29.9335 199.391L30.4752 199.045C29.875 195.867 29.4819 192.656 29.2985 189.43C30.7969 185.227 34.4878 186.371 34.4878 186.371C35.3936 191.461 36.5703 196.602 36.5703 196.602C35.5544 190.022 36.2486 179.717 36.2486 179.717C37.6369 182.784 41.6495 183.253 41.6495 183.253C40.8453 186.831 41.6495 194.382 41.6495 194.382L42.496 193.896C42.7923 190.253 43.3426 186.345 44.0198 182.612C45.022 176.58 46.436 170.62 48.2525 164.772C49.3276 162.066 52.1042 164.221 52.1042 164.221C53.2385 169.369 53.7973 173.211 53.2047 175.949C52.3074 180.128 49.6323 181.773 49.6323 181.773C49.6323 181.773 47.7107 191.642 47.8715 193.287C48.0323 194.932 48.9127 205.756 48.9127 205.756C53.3232 203.42 54.5253 200.147 54.5253 200.147C54.61 193.131 57.7336 189.315 61.7465 187.678C65.759 186.042 67.4943 188.295 67.4943 188.295Z" fill="url(#paint11_linear_1_3)"/>
<g id="Vector_19" style="mix-blend-mode:multiply">
<g id="Vector_20" style="mix-blend-mode:multiply">
<g id="Vector_21" style="mix-blend-mode:multiply">
<path d="M98.1475 164.385L97.8341 165.396C97.8341 165.396 104.225 166.984 109.77 163.422L98.1475 164.385Z" fill="#FEB1C8"/>
</g>
</g>
</g>
<path id="Vector_20_2" d="M35.9692 244.39C35.9692 244.39 32.7439 247.778 32.3122 250.476C32.3122 250.476 34.3947 255.518 35.6983 257.385L36.5449 278.82C36.5449 278.82 49.2429 270.011 48.7604 253.955C48.7604 253.955 47.9138 243.123 48.7604 240.087L47.0165 239.347L47.1773 241.51C47.1773 241.51 41.7765 248.14 36.1724 249.382L35.9692 244.39Z" fill="url(#paint12_linear_1_3)"/>
<path id="Vector_21_2" d="M185.171 233.063V241.643C185.171 241.643 213.699 285.128 222.715 312.139L225.094 321.919C225.094 321.919 208.425 298.214 195.465 299.464C182.504 300.714 181.158 308.191 181.158 308.191L182.124 312.09L181.158 313.644L178.432 301.8H176.029V299.933L171.593 291.337C171.593 291.337 169.612 251.857 185.171 233.063Z" fill="url(#paint13_linear_1_3)"/>
<path id="Vector_22" d="M121.732 146.742C121.732 146.742 122.333 142.457 124.144 141.446L121.732 146.742Z" fill="url(#paint14_linear_1_3)"/>
<g id="Vector_23" style="mix-blend-mode:multiply">
<g id="Vector_24" style="mix-blend-mode:multiply">
<g id="Vector_25" style="mix-blend-mode:multiply">
<path d="M125.626 161.531C129.793 162.272 134.095 161.785 137.977 160.132L137.13 159.162C137.13 159.162 134.598 161.63 125.626 161.531Z" fill="#FEB1C8"/>
</g>
</g>
</g>
<path id="Vector_24_2" style="mix-blend-mode:multiply" d="M95.8451 152.656C91.4509 156.012 96.2594 168.818 96.2594 168.818C96.2594 168.818 106.9 171.023 112.75 164.385V156.275C112.75 156.275 114.443 153.693 120.504 153.89C120.504 153.89 122.689 161.753 124.229 165.256C124.229 165.256 135.183 167.962 140.956 160.955C140.956 160.955 141.43 153.174 138.764 149.44C136.097 145.706 121.732 146.791 121.732 146.791C121.732 146.791 118.346 149.44 109.542 148.815C109.542 148.765 98.6976 150.517 95.8451 152.656Z" fill="url(#paint15_linear_1_3)"/>
<path id="Vector_25_2" style="mix-blend-mode:multiply" d="M109.77 162.295C109.77 162.295 108.331 156.48 103.844 156.242C99.3574 156.003 98.5026 162.295 98.5026 162.295H109.77Z" fill="url(#paint16_linear_1_3)"/>
<path id="Vector_26" style="mix-blend-mode:multiply" d="M124.821 160.132C124.821 160.132 124.703 153.364 129.35 152.196C133.998 151.028 135.996 156.399 135.996 156.399L124.821 160.132Z" fill="url(#paint17_linear_1_3)"/>
<path id="Vector_27" d="M136.809 160.141C135.934 160.609 134.974 160.904 133.98 161.012C131.943 161.365 129.88 161.569 127.81 161.622C126.201 161.622 124.991 161.539 124.864 161.234C124.382 160.066 125.821 155.477 130.29 154.606C134.759 153.734 138.256 158.973 136.809 160.141Z" fill="#FFE4EC"/>
<path id="Vector_28" d="M109.974 163.192C109.915 163.431 109.355 163.718 108.5 164.014C106.245 164.703 103.91 165.111 101.55 165.232C100.701 165.289 99.8484 165.243 99.0101 165.101C96.7417 164.624 98.3842 159.812 102.557 158.776C103.085 158.642 103.631 158.592 104.175 158.628C105.479 158.746 106.718 159.235 107.738 160.034C107.752 160.031 107.767 160.031 107.781 160.034C109.262 161.16 110.125 162.592 109.974 163.192Z" fill="#FFE4EC"/>
<g id="Vector_29" style="mix-blend-mode:multiply">
<g id="Vector_30" style="mix-blend-mode:multiply">
<g id="Vector_31" style="mix-blend-mode:multiply">
<path d="M114.679 174.814C114.679 174.814 111.472 175.02 110.506 173.852C109.541 172.684 111.226 172.15 113.893 170.159C116.559 168.169 119.268 168.785 121.749 169.805C124.229 170.825 126.244 170.956 126.523 171.845C126.803 172.733 123.399 173.778 122.476 173.736C121.554 173.695 121.19 173.424 120.267 173.967C119.094 174.554 117.768 174.785 116.458 174.633C115.861 174.511 115.238 174.574 114.679 174.814Z" fill="#FEB1C8"/>
</g>
</g>
</g>
<g id="Vector_30_2" style="mix-blend-mode:multiply">
<g id="Vector_31_2" style="mix-blend-mode:multiply">
<g id="Vector_32" style="mix-blend-mode:multiply">
<path d="M120.25 173.967C120.403 173.675 120.639 173.432 120.93 173.267C121.222 173.103 121.555 173.023 121.892 173.037C123.019 173.152 124.229 173.383 124.229 173.383C123.009 174.009 121.607 174.215 120.25 173.967Z" fill="#D1A1C8"/>
</g>
</g>
</g>
<g id="Vector_31_2_2" style="mix-blend-mode:multiply">
<g id="Vector_32_2" style="mix-blend-mode:multiply">
<g id="Vector_33" style="mix-blend-mode:multiply">
<path d="M116.22 174.601C116.052 174.302 115.808 174.051 115.512 173.87C115.216 173.688 114.877 173.583 114.527 173.564C113.368 173.507 112.724 174.749 112.724 174.749C113.356 174.899 114.014 174.922 114.655 174.814C115.162 174.662 115.69 174.589 116.22 174.601Z" fill="#D1A1C8"/>
</g>
</g>
</g>
<path id="Vector_32_2_2" style="mix-blend-mode:multiply" d="M122.24 167.099C122.24 167.099 126.65 166.663 126.472 171.845C126.399 170.713 125.945 169.635 125.18 168.778C124.416 167.921 123.382 167.33 122.24 167.099Z" fill="url(#paint18_linear_1_3)"/>
<path id="Vector_33_2" d="M134.743 158.742C134.745 159.569 134.478 160.375 133.98 161.045C131.943 161.398 129.88 161.602 127.81 161.654C127.314 161.2 126.94 160.633 126.725 160.005C126.51 159.376 126.459 158.705 126.576 158.052C126.694 157.4 126.977 156.786 127.399 156.266C127.822 155.746 128.371 155.337 128.996 155.073C129.622 154.81 130.305 154.703 130.984 154.761C131.664 154.818 132.319 155.038 132.888 155.402C133.458 155.766 133.926 156.262 134.249 156.845C134.573 157.427 134.742 158.08 134.743 158.742Z" fill="#7F6186"/>
<path id="Vector_34" d="M108.763 162.6C108.763 163.078 108.674 163.551 108.5 163.999C106.245 164.686 103.91 165.095 101.55 165.215C100.887 164.497 100.522 163.565 100.526 162.6C100.526 161.614 100.9 160.662 101.575 159.926C102.252 159.19 103.183 158.722 104.191 158.611H104.614C105.214 158.609 105.805 158.736 106.348 158.982C106.891 159.227 107.372 159.587 107.755 160.034C107.769 160.031 107.784 160.031 107.798 160.034C108.425 160.75 108.768 161.66 108.763 162.6Z" fill="#7F6186"/>
<path id="Vector_35" d="M124.821 160.132C124.821 160.132 126.168 155.247 130.68 154.802C131.919 154.7 133.162 154.958 134.251 155.544C135.339 156.13 136.223 157.017 136.791 158.092C136.791 158.092 135.666 154.087 131.814 153.881C127.962 153.676 125.533 156.909 124.821 160.132Z" fill="#6C2A51"/>
<path id="Vector_36" d="M109.618 162.032C109.618 162.032 106.782 158.199 102.693 159.112C101.548 159.344 100.495 159.892 99.6621 160.69C98.829 161.489 98.2502 162.502 97.9943 163.611C97.9943 163.611 98.3842 159.417 102.329 158.249C106.663 156.941 109.618 162.032 109.618 162.032Z" fill="#6C2A51"/>
<g id="Vector_37" style="mix-blend-mode:multiply">
<g id="Vector_38" style="mix-blend-mode:multiply">
<g id="Vector_39" style="mix-blend-mode:multiply">
<path d="M108.763 181.772C108.763 181.772 111.548 182.858 119.142 182.151C123.774 181.655 128.026 179.424 130.993 175.932C130.993 175.932 125.363 183.442 120.724 183.961C116.085 184.478 114.181 183.196 111.853 182.578L108.763 181.772Z" fill="#BF7988"/>
</g>
</g>
</g>
<path id="Vector_38_2" d="M115.882 182.636C116.588 183.124 117.389 183.467 118.236 183.646C119.083 183.824 119.958 183.833 120.809 183.673C122.509 183.143 124.013 182.143 125.135 180.793C122.193 181.954 119.057 182.579 115.882 182.636Z" fill="#FFE4EC"/>
<path id="Vector_39_2" style="mix-blend-mode:multiply" d="M129.029 175.414C130.047 175.389 131.05 175.65 131.918 176.167C132.787 176.684 133.483 177.434 133.921 178.326C133.921 178.326 134.489 174.165 129.029 175.414Z" fill="url(#paint19_linear_1_3)"/>
<path id="Vector_40" style="mix-blend-mode:multiply" d="M117.668 185.835C120.231 186.195 122.845 185.735 125.118 184.528C125.118 184.528 124.06 188.271 121.571 188.5C119.081 188.731 117.668 185.835 117.668 185.835Z" fill="url(#paint20_linear_1_3)"/>
<path id="Vector_41" style="mix-blend-mode:multiply" d="M132.779 158.595C132.779 159.01 132.652 159.415 132.414 159.761C132.177 160.105 131.839 160.374 131.445 160.533C131.05 160.691 130.615 160.732 130.196 160.651C129.777 160.569 129.393 160.368 129.091 160.074C128.79 159.78 128.584 159.406 128.502 158.998C128.42 158.591 128.463 158.17 128.629 157.786C128.793 157.403 129.071 157.076 129.427 156.847C129.783 156.617 130.202 156.496 130.629 156.497C131.199 156.5 131.747 156.721 132.149 157.114C132.553 157.507 132.779 158.04 132.779 158.595Z" fill="url(#paint21_linear_1_3)"/>
<path id="Vector_42" style="mix-blend-mode:multiply" d="M106.798 162.295C106.798 162.71 106.672 163.117 106.434 163.462C106.197 163.807 105.859 164.075 105.465 164.234C105.069 164.393 104.635 164.434 104.216 164.352C103.797 164.271 103.412 164.07 103.111 163.776C102.81 163.482 102.604 163.107 102.522 162.7C102.44 162.293 102.483 161.871 102.649 161.488C102.813 161.104 103.091 160.777 103.447 160.548C103.803 160.319 104.222 160.197 104.649 160.199C105.219 160.2 105.766 160.422 106.17 160.816C106.573 161.209 106.798 161.741 106.798 162.295Z" fill="url(#paint22_linear_1_3)"/>
<path id="Vector_43" d="M132.398 158.158C132.398 158.158 134.328 157.27 135.573 158.709L132.398 158.158Z" fill="white"/>
<path id="Vector_44" d="M105.977 161.868C106.484 161.651 107.038 161.557 107.589 161.596C108.141 161.635 108.675 161.804 109.144 162.09L105.977 161.868Z" fill="white"/>
<g id="Vector_45" style="mix-blend-mode:multiply">
<g id="Vector_46" style="mix-blend-mode:multiply">
<g id="Vector_47" style="mix-blend-mode:multiply">
<path d="M97.8341 183.525C100.518 189.578 105.537 194.973 112.75 197.128C117.118 198.428 127.725 197.021 132.779 194.389C135.512 192.995 137.921 191.068 139.854 188.729C141.787 186.39 143.202 183.688 144.013 180.793C144.013 180.793 144.605 185.935 135.242 194.389L135.573 206.381C135.573 206.381 125.491 213.126 120.928 214.894C116.365 216.663 109.457 205.847 109.457 205.847L109.203 196.511C109.203 196.511 100.272 192.26 97.8341 183.525Z" fill="#E392AD"/>
</g>
</g>
</g>
<path id="Vector_46_2" d="M121.816 146.734C121.816 146.734 123.51 141.561 128.123 141.446L122.748 145.961C122.748 145.961 127.539 142.292 132.059 143.115C133.567 143.666 134.943 144.507 136.107 145.589C137.272 146.67 138.198 147.969 138.832 149.407C133.425 147.333 127.62 146.421 121.816 146.734Z" fill="url(#paint23_linear_1_3)"/>
<path id="Vector_47_2" d="M109.541 148.765C109.541 148.765 109.144 145.048 106.52 143.74L108.881 147.787C108.881 147.787 106.774 145.533 105.377 145.179C103.98 144.826 98.554 146.824 95.8451 152.656C100.256 150.892 104.847 149.587 109.541 148.765Z" fill="url(#paint24_linear_1_3)"/>
<g id="Vector_48" style="mix-blend-mode:multiply">
<g id="Vector_49" style="mix-blend-mode:multiply">
<g id="Vector_50" style="mix-blend-mode:multiply">
<path d="M108.136 133.434C111.979 132.818 119.988 119.928 128.013 118.893C136.038 117.856 138.289 130.975 136.791 132.875C135.293 134.775 126.523 134.52 126.523 134.52C126.523 134.52 115.865 133.969 112.589 133.467C109.313 132.966 108.136 133.434 108.136 133.434Z" fill="#E392AD"/>
</g>
</g>
</g>
<path id="Vector_49_2" style="mix-blend-mode:multiply" d="M137.223 135.441C137.223 135.441 143.309 137.818 146.408 141.446C149.506 145.072 148.617 150.37 148.617 150.37L147.593 154.704C147.593 154.704 149.32 141.298 137.223 135.441Z" fill="url(#paint25_linear_1_3)"/>
<path id="Vector_50_2" style="mix-blend-mode:multiply" d="M100.204 135.918C100.204 135.918 87.049 142.021 89.6221 154.506L91.1123 158.709C91.1123 158.709 88.3277 144.941 100.204 135.918Z" fill="url(#paint26_linear_1_3)"/>
<path id="Vector_51" style="mix-blend-mode:multiply" d="M101.203 135.047C101.203 135.047 92.8393 136.535 88.6149 143.115C89.7396 140.77 91.5119 138.775 93.7342 137.351C95.9565 135.926 98.5418 135.128 101.203 135.047Z" fill="url(#paint27_linear_1_3)"/>
<path id="Vector_52" d="M109.144 133.056C109.144 133.056 115.526 126.295 125.135 127.405C134.743 128.515 136.791 135.441 136.791 135.441C136.791 135.441 135.734 125.283 126.507 123.671C117.279 122.059 109.144 133.056 109.144 133.056Z" fill="url(#paint28_linear_1_3)"/>
<path id="Vector_53" d="M141.447 131.008C141.447 131.008 150.023 133.615 150.387 140.829C150.387 140.829 152.783 132.825 141.447 131.008Z" fill="url(#paint29_linear_1_3)"/>
<g id="Vector_54" style="mix-blend-mode:soft-light">
<g id="Vector_55" style="mix-blend-mode:soft-light">
<g id="Vector_56" style="mix-blend-mode:soft-light">
<path d="M113.436 168.243C112.589 169.525 116.407 168.028 119.209 168.243C122.011 168.456 121.749 168.801 121.858 168.243C121.969 167.683 119.767 165.092 117.287 165.479C116.467 165.614 115.691 165.934 115.022 166.415C114.353 166.894 113.81 167.521 113.436 168.243Z" fill="#E7ECFF"/>
</g>
</g>
</g>
<path id="Vector_55_2" style="mix-blend-mode:multiply" d="M116.44 174.633C115.673 174.259 114.995 173.734 114.449 173.088C113.903 172.444 113.503 171.695 113.275 170.891L111.725 171.664C112.227 172.474 112.913 173.163 113.73 173.678C114.547 174.192 115.474 174.519 116.44 174.633Z" fill="url(#paint30_linear_1_3)"/>
<g id="Vector_56_2" style="mix-blend-mode:multiply">
<g id="Vector_57" style="mix-blend-mode:multiply">
<g id="Vector_58" style="mix-blend-mode:multiply">
<path d="M111.683 155.049C110.54 153.166 100.111 152.425 93.9065 158.438C91.3665 160.947 93.9065 170.775 97.6983 173.342C101.491 175.908 108.704 174.453 111.124 168.982C113.546 163.513 112.818 156.933 111.683 155.049ZM101.288 173.342C95.684 173.078 91.9758 164.047 94.6421 159.918C97.9777 154.696 108.89 153.29 110.16 156.687C115.476 170.817 105.69 173.547 101.288 173.342Z" fill="#FFB8CB"/>
</g>
</g>
</g>
<g id="Vector_57_2" style="mix-blend-mode:multiply">
<g id="Vector_58_2" style="mix-blend-mode:multiply">
<g id="Vector_59" style="mix-blend-mode:multiply">
<path d="M122.096 153.083C122.942 150.994 134.159 147.129 141.675 151.743C144.816 153.667 143.826 164.533 139.932 168.127C136.393 171.417 128.732 171.516 125.211 166.646C121.689 161.777 121.258 155.173 122.096 153.083ZM136.241 168.868C142.006 167.437 144.706 156.842 141.211 153.347C136.8 148.913 124.669 150.773 123.967 154.375C121.054 169.353 131.712 169.995 136.241 168.868Z" fill="#FFB8CB"/>
</g>
</g>
</g>
<path id="Vector_58_2_2" d="M111.683 154.704C110.54 152.935 100.111 152.236 93.9065 157.879C91.3665 160.231 93.9065 169.394 97.6983 171.862C101.491 174.329 108.704 172.897 111.124 167.749C113.546 162.6 112.818 156.473 111.683 154.704ZM101.288 171.845C95.684 171.59 91.9758 163.134 94.6421 159.269C97.9777 154.375 108.89 153.059 110.16 156.234C115.476 169.476 105.69 172.034 101.288 171.845Z" fill="url(#paint31_linear_1_3)"/>
<path id="Vector_59_2" d="M122.096 152.861C122.942 150.904 134.159 147.285 141.675 151.612C144.816 153.412 143.826 163.587 139.932 166.951C136.393 170.019 128.732 170.126 125.211 165.578C121.689 161.029 121.258 154.819 122.096 152.861ZM136.241 167.666C142.006 166.326 144.706 156.406 141.211 153.125C136.8 148.971 124.669 150.715 123.967 154.087C121.054 168.111 131.712 168.703 136.241 167.65V167.666Z" fill="url(#paint32_linear_1_3)"/>
<path id="Vector_60" d="M112.318 157.451C112.318 157.451 117.905 155.271 122.476 156.99L122.164 154.704C120.502 154.201 118.754 154.031 117.024 154.205C115.293 154.379 113.618 154.893 112.099 155.715L112.318 157.451Z" fill="url(#paint33_linear_1_3)"/>
<path id="Vector_61" d="M144.538 156.234L146.163 160.206L148.202 159.425L145.469 152.196L144.538 156.234Z" fill="url(#paint34_linear_1_3)"/>
<path id="Vector_62" d="M93.0596 160.132L90.9348 160.799L91.578 163.184L93.1614 163.587L93.0596 160.132Z" fill="#5143A1"/>
<path id="Vector_63" d="M145.672 156.077L143.53 156.432L142.556 152.475L145.469 152.196L145.672 156.077Z" fill="#5143A1"/>
<g id="Vector_64" style="mix-blend-mode:soft-light">
<g id="Vector_65" style="mix-blend-mode:soft-light">
<g id="Vector_66" style="mix-blend-mode:soft-light">
<path d="M124.229 157.92C124.229 157.92 123.476 164.13 129.435 167.132C131.986 167.698 134.647 167.584 137.139 166.803L133.685 157.493L124.229 157.92Z" fill="#5CF1FF"/>
</g>
</g>
</g>
<g id="Vector_65_2" style="mix-blend-mode:soft-light">
<g id="Vector_66_2" style="mix-blend-mode:soft-light">
<g id="Vector_67" style="mix-blend-mode:soft-light">
<path d="M94.9389 161.663C94.9389 161.663 94.3122 167.864 99.1712 170.875C101.255 171.435 103.469 171.319 105.478 170.546L102.668 161.21L94.9389 161.663Z" fill="#5CF1FF"/>
</g>
</g>
</g>
<g id="Vector_66_2_2" style="mix-blend-mode:multiply">
<g id="Vector_67_2" style="mix-blend-mode:multiply">
<g id="Vector_68" style="mix-blend-mode:multiply">
<path d="M112.741 160.848C114.036 159.848 115.586 159.208 117.226 158.995C118.865 158.783 120.533 159.004 122.053 159.639L121.512 157.92C120.086 157.292 118.515 157.044 116.957 157.198C115.4 157.352 113.913 157.905 112.648 158.8L112.741 160.848Z" fill="#FEB1C8"/>
</g>
</g>
</g>
<g id="Vector_67_2_2" style="mix-blend-mode:multiply">
<g id="Vector_68_2" style="mix-blend-mode:multiply">
<g id="Vector_69" style="mix-blend-mode:multiply">
<path d="M144.495 175.414C144.495 175.414 145.985 175.752 146.366 176.747C146.747 177.743 144.249 178.902 144.249 178.902L144.495 175.414Z" fill="#FEB1C8"/>
</g>
</g>
</g>
<g id="Vector_68_2_2" style="mix-blend-mode:multiply">
<g id="Vector_69_2" style="mix-blend-mode:multiply">
<g id="Vector_70" style="mix-blend-mode:multiply">
<path d="M96.7843 178.902C96.7843 178.902 95.0912 180.704 95.3367 181.37C95.5822 182.035 97.512 182.192 97.512 182.192L96.7843 178.902Z" fill="#FEB1C8"/>
</g>
</g>
</g>
<path id="Vector_69_2_2" d="M109.144 133.056C113.297 131.93 117.688 131.93 121.842 133.056C129.155 134.866 125.16 138.921 125.16 138.921C125.16 138.921 122.883 130.696 109.144 133.056Z" fill="url(#paint35_linear_1_3)"/>
<g id="Vector_70_2" style="mix-blend-mode:soft-light">
<g id="Vector_71" style="mix-blend-mode:soft-light">
<g id="Vector_72" style="mix-blend-mode:soft-light">
<path d="M126.523 115.643C127.127 115.929 127.59 116.436 127.811 117.053C128.032 117.669 127.991 118.345 127.7 118.933C128.489 118.758 129.307 118.747 130.1 118.905C130.893 119.062 131.642 119.383 132.296 119.846C131.727 119.068 130.948 118.456 130.045 118.078C128.792 117.691 128.682 115.61 128.682 115.61C127.968 115.463 127.231 115.476 126.523 115.643Z" fill="white"/>
</g>
</g>
</g>
<g id="Vector_71_2" style="mix-blend-mode:soft-light">
<g id="Vector_72_2" style="mix-blend-mode:soft-light">
<g id="Vector_73" style="mix-blend-mode:soft-light">
<path d="M126.845 123.737C127.632 124.453 125.482 127.447 125.482 127.447L129.122 128.31C129.122 128.31 127.826 127.085 127.953 126.024C128.08 124.963 129.41 124.551 129.41 124.551L126.845 123.737Z" fill="white"/>
</g>
</g>
</g>
<g id="Vector_72_2_2" style="mix-blend-mode:multiply">
<g id="Vector_73_2" style="mix-blend-mode:multiply">
<g id="Vector_74" style="mix-blend-mode:multiply">
<path d="M105.943 218.842C105.943 218.842 107.586 243.345 122.934 244.29C140.068 245.352 140.982 224.657 138.849 216.325C142.023 228.853 139.221 244.562 123.281 244.9C106.943 245.262 105.943 218.842 105.943 218.842Z" fill="#E392AD"/>
</g>
</g>
</g>
<g id="Vector_73_2_2" style="mix-blend-mode:multiply">
<g id="Vector_74_2" style="mix-blend-mode:multiply">
<g id="Vector_75" style="mix-blend-mode:multiply">
<path d="M109.677 214.27C109.677 214.27 109.202 237.521 123.476 237.078C137.214 236.658 136.809 219.238 136.809 219.238L136.969 223.563C136.969 223.563 132.982 241.445 122.24 239.858C111.497 238.27 109.202 220.611 109.677 214.27Z" fill="#E392AD"/>
</g>
</g>
</g>
<path id="Vector_74_2_2" style="mix-blend-mode:multiply" d="M110.236 197.104C110.236 197.104 118.404 228.26 120.25 230.004C122.096 231.747 116.999 200.073 116.999 200.073L110.236 197.104Z" fill="url(#paint36_linear_1_3)"/>
<g id="Vector_75_2" style="mix-blend-mode:multiply">
<g id="Vector_76" style="mix-blend-mode:multiply">
<g id="Vector_77" style="mix-blend-mode:multiply">
<path d="M136.173 208.529L137.223 207.623C137.223 207.623 144.588 219.731 147.153 226.87C149.718 234.01 141.668 321.597 141.668 321.597L132.728 321.326C132.728 321.326 142.302 269.723 144.013 249.365C145.004 237.066 142.439 224.742 136.605 213.784L136.173 208.529Z" fill="#E392AD"/>
</g>
</g>
</g>
<g id="Vector_76_2" style="mix-blend-mode:multiply">
<g id="Vector_77_2" style="mix-blend-mode:multiply">
<g id="Vector_78" style="mix-blend-mode:multiply">
<path d="M115.442 321.416C115.442 321.416 102.744 240.417 103.531 229.971C104.318 219.526 109.677 214.27 109.677 214.27L109.592 210.872L105.936 210.091C105.936 210.091 100.966 223.095 100.162 230.037C99.3574 236.978 105.943 321.416 105.943 321.416H115.442Z" fill="#E392AD"/>
</g>
</g>
</g>
<path id="Vector_77_2_2" d="M93.9649 224.032C93.9649 224.032 85.864 232.866 79.4475 238.682C79.4475 238.682 81.0475 242.63 89.6055 244.085L82.5115 251.883C82.5115 251.883 89.7074 294.891 98.6889 321.696L105.918 321.416C105.918 321.416 99.4932 240.088 100.137 230.037C100.78 219.986 105.91 210.091 105.91 210.091C105.91 210.091 100.577 217.14 93.9649 224.032Z" fill="url(#paint37_linear_1_3)"/>
<path id="Vector_78_2" d="M138.172 207.623C138.172 207.623 147.297 221.557 157.566 224.542L168.968 238.475C168.968 238.475 168.892 243.155 156.541 245.549L164.371 254.596C164.371 254.596 159.233 294.076 147.661 321.219L141.668 321.573C141.668 321.573 150.404 240.968 147.449 228.334C145.757 220.915 142.607 213.883 138.172 207.623Z" fill="url(#paint38_linear_1_3)"/>
<path id="Vector_79" style="mix-blend-mode:multiply" d="M105.977 224.032C105.977 224.032 105.513 251.883 120.504 269.122L105.977 224.032Z" fill="url(#paint39_linear_1_3)"/>
<path id="Vector_80" style="mix-blend-mode:multiply" d="M142.556 226.764C142.556 226.764 145.942 247.038 125.626 259.54C125.626 259.54 139.339 245.491 142.556 226.764Z" fill="url(#paint40_linear_1_3)"/>
<g id="Vector_81" style="mix-blend-mode:multiply">
<g id="Vector_82" style="mix-blend-mode:multiply">
<g id="Vector_83" style="mix-blend-mode:multiply">
<path d="M32.3122 263.15L34.6571 280.267C34.6571 280.267 48.5657 273.07 48.8365 253.947C48.8365 253.947 46.9657 266.836 36.9089 272.963L35.7322 257.376L35.0804 256.315L32.3122 263.15Z" fill="#E392AD"/>
</g>
</g>
</g>
<g id="Vector_82_2" style="mix-blend-mode:multiply">
<g id="Vector_83_2" style="mix-blend-mode:multiply">
<g id="Vector_84" style="mix-blend-mode:multiply">
<path d="M36.164 249.358L32.9556 250.064C33.5949 248.256 34.6352 246.605 36.0031 245.229L36.164 249.358Z" fill="#E392AD"/>
</g>
</g>
</g>
<path id="Vector_83_2_2" style="mix-blend-mode:multiply" d="M52.4851 175.949C51.6386 180.127 49.6323 181.772 49.6323 181.772C49.6323 181.772 47.7107 191.642 47.8715 193.287C40.3373 194.718 29.8573 200.073 27.6055 202.976C25.5399 205.649 27.2245 216.055 27.5039 217.716L25.6076 208.817C24.9897 205.065 24.7611 202.492 24.7611 202.492L24.1177 194.776C25.2352 189.792 28.2319 190.574 28.2319 190.574C28.5186 193.562 29.0853 196.519 29.925 199.407L30.4752 199.045C29.875 195.867 29.4818 192.656 29.2985 189.43C30.7969 185.227 34.4878 186.371 34.4878 186.371C35.3936 191.461 36.5703 196.602 36.5703 196.602C35.5544 190.022 36.2485 179.717 36.2485 179.717C37.6369 182.784 41.6495 183.253 41.6495 183.253C40.8453 186.831 41.6495 194.382 41.6495 194.382L42.496 193.896C42.7923 190.253 43.3425 186.345 44.0198 182.612C49.827 181.46 52.3581 176.27 52.4851 175.949Z" fill="url(#paint41_linear_1_3)"/>
<path id="Vector_84_2" d="M36.2147 179.725L51.5624 171.845C51.5624 171.845 56.7601 181.443 41.6156 183.253C41.6156 183.253 36.9089 184.24 36.2147 179.725Z" fill="url(#paint42_linear_1_3)"/>
<path id="Vector_85" d="M30.9577 186.748L41.5395 179.774C41.5395 179.774 43.9436 183.064 41.8272 186.157C40.0072 188.796 34.0476 191.321 29.3409 190.269C29.3409 190.31 28.7314 188.451 30.9577 186.748Z" fill="url(#paint43_linear_1_3)"/>
<path id="Vector_86" d="M27.9356 190.376L37.2475 189.668C37.2475 189.668 37.6115 194.603 32.7862 195.204C29.9264 195.647 26.9959 195.312 24.3209 194.234C24.257 193.741 24.3037 193.241 24.4577 192.769C24.6116 192.296 24.8694 191.862 25.213 191.495C25.5565 191.128 25.9778 190.838 26.4479 190.645C26.9179 190.452 27.4255 190.36 27.9356 190.376Z" fill="url(#paint44_linear_1_3)"/>
<path id="Vector_87" d="M46.1276 174.633C43.9859 175.736 47.4313 175.455 49.1159 174.633C49.6475 173.5 50.495 172.534 51.5624 171.845L46.1276 174.633Z" fill="#FFE4DB"/>
<path id="Vector_88" d="M41.5395 179.774C41.5395 179.774 38.4581 181.715 37.984 183.59C37.984 183.59 33.9207 185.622 34.9872 184.297C36.0539 182.974 41.5395 179.774 41.5395 179.774Z" fill="#FFE4DB"/>
<path id="Vector_89" d="M37.3068 189.669C37.3068 189.669 35.3597 189.413 33.836 191.635C33.836 191.635 30.1959 191.857 30.8393 190.722C31.4826 189.586 37.3068 189.669 37.3068 189.669Z" fill="#FFE4DB"/>
<path id="Vector_90" style="mix-blend-mode:multiply" d="M56.3707 218.842C56.3707 218.842 45.569 225.176 42.9024 228.293C41.733 229.567 40.6606 230.922 39.694 232.348L47.1773 227.98C47.1773 227.98 50.2757 224.542 56.3707 218.842Z" fill="url(#paint45_linear_1_3)"/>
<path id="Vector_91" style="mix-blend-mode:multiply" d="M48.9127 205.723C48.9127 205.723 39.4739 207.311 38.9406 217.905C38.9406 217.905 38.8897 202.836 48.845 204.926L48.9127 205.723Z" fill="url(#paint46_linear_1_3)"/>
<path id="Vector_92" style="mix-blend-mode:multiply" opacity="0.5" d="M54.5253 200.115C55.194 202.006 61.8561 197.104 61.8561 197.104C61.8561 197.104 56.6839 203.93 57.1496 210.634C57.1496 210.634 55.7104 206.423 51.9772 205.954C49.4488 205.772 46.9196 206.298 44.6886 207.468C46.0131 206.705 47.4366 206.119 48.9212 205.723C48.9212 205.723 53.1031 203.355 54.5253 200.115Z" fill="url(#paint47_linear_1_3)"/>
<g id="Vector_93" style="mix-blend-mode:multiply">
<g id="Vector_94" style="mix-blend-mode:multiply">
<g id="Vector_95" style="mix-blend-mode:multiply">
<path d="M36.0539 246.997C40.2605 246.326 44.1481 244.4 47.1773 241.486C47.1773 241.486 42.7923 247.465 36.1724 249.358L36.0539 246.997Z" fill="#FEB1C8"/>
</g>
</g>
</g>
<path id="Vector_94_2" style="mix-blend-mode:multiply" opacity="0.8" d="M69.9241 245.434C69.9241 245.434 77.8898 262.213 80.1247 280.801C80.1247 280.801 81.7161 252.91 69.9241 235.843V245.434Z" fill="url(#paint48_linear_1_3)"/>
<path id="Vector_95_2" style="mix-blend-mode:multiply" opacity="0.8" d="M54.61 270.011C54.61 270.011 64.8699 282.48 65.5135 297.153C65.5135 297.153 68.7214 274.863 55.1602 269.146L54.61 270.011Z" fill="url(#paint49_linear_1_3)"/>
<path id="Vector_96" style="mix-blend-mode:multiply" opacity="0.8" d="M24.7781 286.838C24.7781 286.838 38.7797 284.971 47.1773 270.636C47.1773 270.636 45.1456 287.151 31.9905 290.112L24.7781 286.838Z" fill="url(#paint50_linear_1_3)"/>
<path id="Vector_97" style="mix-blend-mode:multiply" opacity="0.8" d="M50.8428 257.698C50.8428 257.698 54.1274 277.8 56.3707 292.917C58.614 308.035 57.6575 310.082 57.6575 310.082C57.6575 310.082 58.7664 301.759 57.1749 286.542C56.0571 276.747 53.9359 267.084 50.8428 257.698Z" fill="url(#paint51_linear_1_3)"/>
<g id="Vector_98" style="mix-blend-mode:multiply">
<g id="Vector_99" style="mix-blend-mode:multiply">
<g id="Vector_100" style="mix-blend-mode:multiply">
<path d="M80.1247 289.692L79.4725 275.216C79.4725 275.216 84.1709 310.79 93.1527 321.54L96.0479 319.722C96.0479 319.722 91.8148 299.324 88.1074 280.761L98.7141 321.696L84.6026 321.598C84.6026 321.598 81.2079 299.464 80.1247 289.692Z" fill="#E392AD"/>
</g>
</g>
</g>
<path id="Vector_99_2" style="mix-blend-mode:multiply" opacity="0.8" d="M185.171 233.063C185.171 233.063 174.47 247.778 173.006 265.75C173.006 265.75 176.993 249.752 185.171 241.643V233.063Z" fill="url(#paint52_linear_1_3)"/>
<path id="Vector_100_2" style="mix-blend-mode:multiply" opacity="0.8" d="M180.202 257.698C180.202 257.698 181.802 285.901 178.432 301.8H176.029C176.029 301.8 182.606 280.604 180.202 257.698Z" fill="url(#paint53_linear_1_3)"/>
<path id="Vector_101" style="mix-blend-mode:multiply" opacity="0.8" d="M171.593 291.337L173.006 272.972C173.006 272.972 167.851 309.515 159.826 321.161H166.437C166.437 321.161 170.932 304.859 171.593 291.337Z" fill="url(#paint54_linear_1_3)"/>
<path id="Vector_102" style="mix-blend-mode:multiply" opacity="0.8" d="M179.093 304.654C179.093 304.654 183.325 296.108 190.572 294.619C197.818 293.131 212.116 297.087 212.116 297.087C210.885 294.345 208.766 292.068 206.082 290.603C203.397 289.137 200.293 288.563 197.242 288.969C186.119 290.219 184.41 295.549 182.217 298.789C180.024 302.03 178.636 302.475 178.636 302.475L179.093 304.654Z" fill="url(#paint55_linear_1_3)"/>
<path id="Vector_103" style="mix-blend-mode:multiply" opacity="0.8" d="M184.638 298.634C184.638 298.634 190.14 294.521 199.825 295.878C209.509 297.235 211.676 299.168 211.676 299.168C211.676 299.168 196.878 293.854 184.638 298.634Z" fill="url(#paint56_linear_1_3)"/>
<path id="Vector_104" style="mix-blend-mode:multiply" d="M174.707 297.375C174.707 297.375 180.566 274.994 176.934 254.605C176.934 254.605 171.33 259.705 171.593 291.363L174.707 297.375Z" fill="url(#paint57_linear_1_3)"/>
<g id="Vector_105" style="mix-blend-mode:multiply">
<g id="Vector_106" style="mix-blend-mode:multiply">
<g id="Vector_107" style="mix-blend-mode:multiply">
<path d="M150.844 321.161C150.844 321.161 161.003 287.711 160.917 259.54C160.917 259.54 157.633 294.85 147.661 321.228L150.844 321.161Z" fill="#E392AD"/>
</g>
</g>
</g>
<path id="Vector_106_2" d="M187.414 301.8L188.54 309.984C188.54 309.984 199.333 311.497 199.469 311.284C199.604 311.069 199.469 300.401 199.469 300.401L187.414 301.8Z" fill="url(#paint58_linear_1_3)"/>
<path id="Vector_107_2" d="M199.554 297.802C184.477 295.516 179.237 305.279 179.237 305.279L181.158 313.644C199.096 324.427 225.094 321.919 225.094 321.919C225.094 321.919 214.631 300.089 199.554 297.802ZM182.124 312.09L181.48 306.94C181.48 306.94 183.173 298.272 198.165 299.538C209.923 300.517 221.978 319.805 221.978 319.805C198.648 323.572 182.124 312.09 182.124 312.09Z" fill="url(#paint59_linear_1_3)"/>
<path id="Vector_108" d="M182.733 311.284C182.733 311.284 173.328 315.511 171.507 317.041C171.233 318.077 171.233 319.164 171.507 320.2C172.016 321.483 175.63 321.483 177.79 320.783C179.947 320.084 183.165 314.31 183.165 314.31L182.733 311.284Z" fill="url(#paint60_linear_1_3)"/>
<path id="Vector_109" d="M177.501 322.008C177.501 322.008 180.304 309.671 189.353 305.83C198.402 301.989 210.431 313.38 210.965 322.215L177.501 322.008Z" fill="url(#paint61_linear_1_3)"/>
<g id="Vector_110" style="mix-blend-mode:multiply">
<g id="Vector_111" style="mix-blend-mode:multiply">
<g id="Vector_112" style="mix-blend-mode:multiply">
<path d="M178.763 318.184H189.235C189.235 318.184 190.792 309.539 193.619 305.23C193.619 305.23 183.952 304.695 178.763 318.184Z" fill="#E392AD"/>
</g>
</g>
</g>
<g id="Vector_111_2" style="mix-blend-mode:multiply">
<g id="Vector_112_2" style="mix-blend-mode:multiply">
<g id="Vector_113" style="mix-blend-mode:multiply">
<path d="M183.088 310.683C186.451 309.627 190.052 309.518 193.475 310.371C199.401 311.761 208.019 320.289 208.713 320.66C209.374 320.928 210.064 321.121 210.77 321.235C210.77 321.235 208.391 308.997 198.605 305.772C188.819 302.549 183.088 310.683 183.088 310.683Z" fill="#BFA1BC"/>
</g>
</g>
</g>
<g id="Vector_112_2_2" style="mix-blend-mode:multiply">
<g id="Vector_113_2" style="mix-blend-mode:multiply">
<g id="Vector_114" style="mix-blend-mode:multiply">
<path d="M192.078 318.184C192.078 318.184 192.764 309.358 194.533 305.772C194.533 305.772 199.9 306.53 202.601 308.511L202.009 318.381L192.078 318.184Z" fill="#E392AD"/>
</g>
</g>
</g>
<path id="Vector_113_2_2" d="M212.548 312.92C212.548 315.051 211.329 317.855 210.804 318.949L210.584 319.385C207.325 319.854 206.724 317.559 206.724 317.559L207.52 315.914C207.083 316.17 206.582 316.306 206.072 316.306C205.562 316.306 205.061 316.17 204.624 315.914C203.016 315.017 201.763 312.213 201.763 312.213L202.347 309.992C202.133 310.28 201.902 310.554 201.653 310.814C201.463 311.029 201.237 311.21 200.984 311.349C200.4 311.604 195.693 310.411 195.211 309.449C195.001 308.509 194.954 307.542 195.067 306.587C195.16 304.785 195.389 302.844 195.389 302.844L193.603 302.532C192.91 304.019 192.034 305.419 190.995 306.702C190.909 306.784 190.819 306.86 190.724 306.933C188.95 307.894 187.108 308.735 185.213 309.449C182.547 308.504 182.301 306.652 182.47 305.443C182.522 305.04 182.631 304.644 182.792 304.268C184.934 301.356 185.111 297.235 188.54 297.318C191.969 297.399 193.34 299.407 193.34 299.407C193.999 299.641 194.696 299.761 195.397 299.76C197.067 299.346 198.821 299.374 200.477 299.843C202.897 300.665 204.362 303.708 204.362 303.708C204.362 303.708 208.265 305.789 208.959 306.776C209.652 307.763 209.441 310.617 209.441 310.617C210.999 310.996 212.548 312.92 212.548 312.92Z" fill="url(#paint62_linear_1_3)"/>
<g id="Vector_114_2" style="mix-blend-mode:multiply">
<g id="Vector_115" style="mix-blend-mode:multiply">
<g id="Vector_116" style="mix-blend-mode:multiply">
<path d="M156.541 245.549L148.076 240.475C151.198 241.639 154.069 243.36 156.541 245.549Z" fill="#E392AD"/>
</g>
</g>
</g>
<g id="Vector_115_2" style="mix-blend-mode:multiply">
<g id="Vector_116_2" style="mix-blend-mode:multiply">
<g id="Vector_117" style="mix-blend-mode:multiply">
<path d="M89.6308 244.085C89.6308 244.085 96.3099 238.368 100.247 237.505C96.5371 239.426 92.9873 241.625 89.6308 244.085Z" fill="#E392AD"/>
</g>
</g>
</g>
<path id="Vector_116_2_2" d="M76.3577 321.919C76.3577 321.919 67.7649 286.69 65.2765 260.231C65.2765 260.231 128.131 251.528 175.182 256.472C175.182 256.472 173.15 291.609 167.884 321.91L76.3577 321.919Z" fill="url(#paint63_linear_1_3)"/>
<g id="Vector_117_2" style="mix-blend-mode:soft-light" opacity="0.5">
<g id="Vector_118" style="mix-blend-mode:soft-light">
<g id="Vector_119" style="mix-blend-mode:soft-light">
<path d="M125.626 256.537L76.357 321.919H116.44L160.917 256.537C160.917 256.537 140.025 254.975 125.626 256.537Z" fill="white"/>
</g>
</g>
</g>
<path id="Vector_118_2" d="M65.2765 260.239L67.1722 257.492C67.1722 257.492 120.504 249.916 172.143 254.703L175.165 256.48C175.165 256.48 114.283 253.79 65.2765 260.239Z" fill="url(#paint64_linear_1_3)"/>
<path id="Vector_119_2" d="M108.991 294.143C108.991 294.143 116.06 282.628 127.759 281.336C127.759 281.336 126.633 288.928 108.991 294.143Z" fill="white"/>
<path id="Vector_120" d="M156.541 253.609V256.077L138.172 255.945V253.125C138.172 253.125 151.809 253.33 156.541 253.609Z" fill="white"/>
<path id="Vector_121" d="M72.9036 256.777V259.293L86.3973 258.034L87.0066 255.328C87.0066 255.328 76.5947 256.324 72.9036 256.777Z" fill="white"/>
<g id="Vector_122" style="mix-blend-mode:multiply">
<g id="Vector_123" style="mix-blend-mode:multiply">
<g id="Vector_124" style="mix-blend-mode:multiply">
<path d="M75.062 316.367C75.062 316.367 82.4692 320.57 120.504 321.244C158.539 321.919 168.519 318.167 168.519 318.167L167.884 321.919H76.357L75.062 316.367Z" fill="#EBC2D4"/>
</g>
</g>
</g>
<g id="Vector_123_2" style="mix-blend-mode:multiply">
<g id="Vector_124_2" style="mix-blend-mode:multiply">
<g id="Vector_125" style="mix-blend-mode:multiply">
<path d="M190.961 306.792C190.875 306.874 190.785 306.951 190.69 307.023C188.915 307.985 187.074 308.826 185.179 309.539C182.513 308.594 182.267 306.743 182.437 305.534C183.732 306.192 190.149 304.778 190.792 305.09C191.435 305.403 190.961 306.792 190.961 306.792Z" fill="#E392AD"/>
</g>
</g>
</g>
<g id="Vector_124_2_2" style="mix-blend-mode:multiply">
<g id="Vector_125_2" style="mix-blend-mode:multiply">
<g id="Vector_126" style="mix-blend-mode:multiply">
<path d="M202.321 308.849C202.239 309.567 201.999 310.259 201.619 310.881C201.429 311.095 201.204 311.275 200.95 311.415C200.366 311.67 195.659 310.478 195.176 309.515C194.968 308.575 194.92 307.608 195.033 306.652C195.033 306.652 197.573 305.007 199.519 305.789C201.466 306.571 202.321 307.681 202.321 308.849Z" fill="#E392AD"/>
</g>
</g>
</g>
<g id="Vector_125_2_2" style="mix-blend-mode:multiply">
<g id="Vector_126_2" style="mix-blend-mode:multiply">
<g id="Vector_127" style="mix-blend-mode:multiply">
<path d="M208.307 313.883C208.264 314.635 207.983 315.356 207.502 315.947C207.065 316.203 206.566 316.339 206.055 316.339C205.545 316.339 205.044 316.203 204.607 315.947C202.998 315.051 201.746 312.245 201.746 312.245C202.017 311.21 203.439 310.724 205.132 311.465C206.338 312.069 207.414 312.889 208.307 313.883Z" fill="#E392AD"/>
</g>
</g>
</g>
<g id="Vector_126_2_2" style="mix-blend-mode:multiply">
<g id="Vector_127_2" style="mix-blend-mode:multiply">
<g id="Vector_128" style="mix-blend-mode:multiply">
<path d="M210.787 318.949C210.782 319.033 210.761 319.114 210.723 319.188C210.685 319.264 210.632 319.33 210.567 319.385C207.307 319.854 206.707 317.559 206.707 317.559C207.097 316.736 208.865 316.663 209.83 317.247C210.132 317.421 210.379 317.671 210.548 317.971C210.716 318.27 210.799 318.609 210.787 318.949Z" fill="#E392AD"/>
</g>
</g>
</g>
<g id="Vector_127_2_2" style="mix-blend-mode:multiply">
<g id="Vector_128_2" style="mix-blend-mode:multiply">
<g id="Vector_129" style="mix-blend-mode:multiply">
<path d="M171.508 320.232C172.259 320.646 173.098 320.883 173.959 320.923C174.821 320.963 175.681 320.805 176.468 320.463C179.397 319.335 177.222 314.03 177.222 314.03L182.47 311.472C182.47 311.472 178.619 317.189 177.772 320.816C177.772 320.816 172.693 322.222 171.508 320.232Z" fill="#E392AD"/>
</g>
</g>
</g>
<path id="Vector_128_2_2" d="M183.165 304.58C185.099 303.869 187.192 303.662 189.235 303.979C189.235 303.979 188.388 301.562 186.204 301.8C184.02 302.039 183.165 304.58 183.165 304.58Z" fill="#FFE4DB"/>
<path id="Vector_129_2" d="M197.919 305.016C197.919 305.016 201.373 304.876 202.534 306.661C202.534 306.661 201.493 303.659 200.045 303.782C199.618 303.821 199.207 303.952 198.838 304.166C198.471 304.38 198.157 304.67 197.919 305.016Z" fill="#FFE4DB"/>
<path id="Vector_130" d="M205.014 310.485C205.014 310.485 207.621 311.226 208.307 312.903C208.307 312.903 208.307 309.787 207.104 309.515C205.902 309.243 205.014 310.485 205.014 310.485Z" fill="#FFE4DB"/>
<path id="Vector_131" d="M208.755 316.284C208.755 316.284 210.381 316.622 210.813 317.304C210.813 317.304 211.473 315.165 210.431 314.894C209.39 314.622 208.755 316.284 208.755 316.284Z" fill="#FFE4DB"/>
<path id="Vector_132" style="mix-blend-mode:multiply" d="M204.311 303.774C203.861 305.918 203.188 308.013 202.305 310.025C203.866 308.425 204.822 306.357 205.014 304.16L204.311 303.774Z" fill="url(#paint65_linear_1_3)"/>
<path id="Vector_133" style="mix-blend-mode:multiply" d="M209.39 310.683L208.002 315.149C208.002 315.149 210.939 313.816 210.457 311.103L209.39 310.683Z" fill="url(#paint66_linear_1_3)"/>
<g id="Vector_134" style="mix-blend-mode:multiply">
<g id="Vector_135" style="mix-blend-mode:multiply">
<g id="Vector_136" style="mix-blend-mode:multiply">
<path d="M191.892 305.567L193.298 299.473L193.899 299.645L193.569 302.582L195.355 302.894L195.126 305.23C195.126 305.23 192.671 305.04 191.892 305.567Z" fill="#E392AD"/>
</g>
</g>
</g>
<g id="Vector_135_2" style="mix-blend-mode:multiply">
<g id="Vector_136_2" style="mix-blend-mode:multiply">
<g id="Vector_137" style="mix-blend-mode:multiply">
<path d="M156.541 245.549C156.541 245.549 165.286 242.942 168.968 238.475C168.968 238.475 167.334 246.1 157.963 247.145L156.541 245.549Z" fill="#E392AD"/>
</g>
</g>
</g>
<g id="Vector_136_2_2" style="mix-blend-mode:multiply">
<g id="Vector_137_2" style="mix-blend-mode:multiply">
<g id="Vector_138" style="mix-blend-mode:multiply">
<path d="M79.4725 238.682C79.4725 238.682 78.7868 244.068 87.7941 246.084L90.5787 243.288C86.5608 242.605 82.7595 241.028 79.4725 238.682Z" fill="#E392AD"/>
</g>
</g>
</g>
<path id="Vector_137_2_2" style="mix-blend-mode:multiply" opacity="0.5" d="M145.096 216.087C145.096 216.087 150.048 227.051 153.561 230.629C157.074 234.207 166.768 235.802 166.768 235.802L157.566 224.542C157.566 224.542 150.911 222.988 145.096 216.087Z" fill="url(#paint67_linear_1_3)"/>
<path id="Vector_138_2" style="mix-blend-mode:multiply" opacity="0.5" d="M103.997 212.542C103.997 212.542 100.238 221.853 97.8341 229.486C95.4298 237.118 85.0171 238.065 85.0171 238.065C85.0171 238.065 96.2847 220.611 103.997 212.542Z" fill="url(#paint68_linear_1_3)"/>
<g id="Vector_139" style="mix-blend-mode:multiply">
<g id="Vector_140" style="mix-blend-mode:multiply">
<g id="Vector_141" style="mix-blend-mode:multiply">
<path d="M30.0012 225.299L37.3068 229.33L35.1988 229.494L30.3736 226.187L30.0012 225.299Z" fill="#FEB1C8"/>
</g>
</g>
</g>
<path id="Vector_140_2" style="mix-blend-mode:multiply" opacity="0.5" d="M31.6688 208.348C33.2519 204.4 43.5203 199.588 45.8144 200.435C48.1086 201.282 47.4567 206.381 47.4567 206.381C47.4567 206.381 41.2347 206.991 38.9913 216.342C38.9913 216.342 36.0539 219.328 34.0137 217.683C31.9736 216.038 31.6688 208.348 31.6688 208.348Z" fill="url(#paint69_linear_1_3)"/>
<g id="Vector_141_2" style="mix-blend-mode:soft-light" opacity="0.2">
<g id="Vector_142" style="mix-blend-mode:soft-light">
<g id="Vector_143" style="mix-blend-mode:soft-light">
<path d="M185.171 241.643C187.436 251.023 190.473 260.213 194.254 269.122C200.807 284.873 217.229 298.46 217.229 298.46C217.229 298.46 198.623 260.963 185.171 241.643Z" fill="white"/>
</g>
</g>
</g>
<g id="Vector_142_2" style="mix-blend-mode:soft-light" opacity="0.2">
<g id="Vector_143_2" style="mix-blend-mode:soft-light">
<g id="Vector_144" style="mix-blend-mode:soft-light">
<path d="M160.917 225.941C162.665 228.491 164.793 230.776 167.232 232.718C170.763 235.309 181.454 238.475 181.454 238.475L185.171 233.063C180.744 231.181 176.177 229.628 171.508 228.417C164.753 226.772 160.917 225.941 160.917 225.941Z" fill="white"/>
</g>
</g>
</g>
<g id="Vector_143_2_2" style="mix-blend-mode:soft-light" opacity="0.2">
<g id="Vector_144_2" style="mix-blend-mode:soft-light">
<g id="Vector_145" style="mix-blend-mode:soft-light">
<path d="M69.9241 235.802C71.3201 238.068 72.5864 240.408 73.7161 242.81C73.7161 242.81 78.4825 238.327 81.4705 235.309C83.193 233.603 84.6222 231.64 85.7029 229.494C80.8441 231.122 72.5987 233.483 69.9241 235.802Z" fill="white"/>
</g>
</g>
</g>
<path id="Vector_144_2_2" style="mix-blend-mode:multiply" d="M124.44 146.594C125.77 145.569 127.298 144.812 128.934 144.37C130.57 143.927 132.28 143.809 133.964 144.02C130.667 144.373 127.451 145.242 124.44 146.594Z" fill="url(#paint70_linear_1_3)"/>
<path id="Vector_145_2" style="mix-blend-mode:multiply" d="M126.227 146.594C126.227 146.594 132.812 144.522 136.791 146.355C133.304 145.583 129.673 145.665 126.227 146.594Z" fill="url(#paint71_linear_1_3)"/>
<path id="Vector_146" style="mix-blend-mode:multiply" d="M109.144 148.872C109.144 148.872 105.825 145.377 102.735 145.764L109.144 148.872Z" fill="url(#paint72_linear_1_3)"/>
<path id="Vector_147" style="mix-blend-mode:multiply" d="M108.136 149.004C108.136 149.004 103.277 145.475 99.1711 148.05C99.1711 148.05 102.735 146.405 108.136 149.004Z" fill="url(#paint73_linear_1_3)"/>
<path id="Vector_148" style="mix-blend-mode:multiply" d="M42.6992 183.105C42.7096 181.9 42.301 180.725 41.5395 179.774C42.0916 180.129 42.5521 180.604 42.8853 181.16C43.2185 181.716 43.4155 182.339 43.4611 182.981L42.6992 183.105Z" fill="url(#paint74_linear_1_3)"/>
<path id="Vector_149" style="mix-blend-mode:multiply" d="M36.4941 189.661L29.3408 190.31C29.3408 190.31 31.6773 189.347 36.4941 189.661Z" fill="url(#paint75_linear_1_3)"/>
</g>
<g id="luz">
<path id="Vector_150" opacity="0.36" fill-rule="evenodd" clip-rule="evenodd" d="M225.882 108.952L166.789 329H338.614L284.711 112.268" fill="#FFFC80"/>
</g>
<g id="lamparaconluz">
<g id="lampara">
<path id="Vector_151" fill-rule="evenodd" clip-rule="evenodd" d="M213.985 116.071C213.985 116.071 239.968 121.337 293.859 116.311C293.849 116.311 264.672 101.339 213.985 116.071Z" fill="url(#paint76_linear_1_3)"/>
<path id="Vector_152" fill-rule="evenodd" clip-rule="evenodd" d="M223.522 52.2909L224.975 48.2278C224.975 48.2278 250.198 34.587 282.157 48.2278L282.744 52.2909C282.744 52.2909 247.61 44.3108 223.522 52.2909Z" fill="url(#paint77_linear_1_3)"/>
<path id="Vector_153" fill-rule="evenodd" clip-rule="evenodd" d="M258.414 322.273L251.95 83.7788H255.229L263.584 322.273H258.414Z" fill="url(#paint78_linear_1_3)"/>
<path id="Vector_154" fill-rule="evenodd" clip-rule="evenodd" d="M213.985 116.071L223.522 52.2909C223.522 52.2909 253.133 39.9644 282.744 52.2909L293.849 116.311C293.849 116.311 255.058 104.612 213.985 116.071Z" fill="url(#paint79_linear_1_3)"/>
<g id="Vector_155" style="mix-blend-mode:soft-light">
<g id="Vector_156" style="mix-blend-mode:soft-light">
<g id="Vector_157" style="mix-blend-mode:soft-light">
<path fill-rule="evenodd" clip-rule="evenodd" d="M230.172 50.1176V46.0374L237.861 43.8298V48.3481L230.172 50.1176Z" fill="white"/>
</g>
</g>
</g>
<path id="Vector_156_2" fill-rule="evenodd" clip-rule="evenodd" d="M217.566 92.1478C217.566 92.1478 258.522 78.7563 290.24 95.5153L286.863 76.0938C286.863 76.0938 258.686 64.188 219.403 79.8559L217.566 92.1478Z" fill="url(#paint80_linear_1_3)"/>
<path id="Vector_157_2" fill-rule="evenodd" clip-rule="evenodd" d="M216.199 101.27C216.199 101.27 255.654 87.6463 291.261 101.27L293.869 116.311C293.869 116.311 262.929 105.763 213.995 116.071L216.199 101.27Z" fill="url(#paint81_linear_1_3)"/>
<path id="interruptor" fill-rule="evenodd" clip-rule="evenodd" d="M241.056 111.904L239.958 152.895H242.355L242.875 111.776L241.056 111.904Z" fill="url(#paint82_linear_1_3)"/>
<path id="Vector_159" style="mix-blend-mode:multiply" opacity="0.3" fill-rule="evenodd" clip-rule="evenodd" d="M213.985 116.071C213.985 116.071 246.474 108.598 262.814 99.4668C273.179 93.6771 271.476 44.5428 271.476 44.5428L282.196 48.2278L293.888 116.311C293.888 116.311 266.452 105.763 213.985 116.071Z" fill="url(#paint83_linear_1_3)"/>
</g>
</g>
<path id="escritorio" d="M338.614 321.919H0V329H338.614V321.919Z" fill="url(#paint84_linear_1_3)"/>
</g>
</g>
</g>
<defs>
<linearGradient id="paint0_linear_1_3" x1="118.532" y1="200.468" x2="118.532" y2="128.31" gradientUnits="userSpaceOnUse">
<stop stop-color="#FFB595"/>
<stop offset="0.98" stop-color="#FFC2A9"/>
</linearGradient>
<linearGradient id="paint1_linear_1_3" x1="123.205" y1="243.303" x2="123.205" y2="194.389" gradientUnits="userSpaceOnUse">
<stop offset="0.02" stop-color="#FFA67F"/>
<stop offset="1" stop-color="#FF8B7C"/>
</linearGradient>
<linearGradient id="paint2_linear_1_3" x1="119.649" y1="154.844" x2="119.649" y2="130.489" gradientUnits="userSpaceOnUse">
<stop offset="0.02" stop-color="white"/>
<stop offset="0.99" stop-color="#F29DC8"/>
</linearGradient>
<linearGradient id="paint3_linear_1_3" x1="148.245" y1="178.902" x2="148.245" y2="158.997" gradientUnits="userSpaceOnUse">
<stop offset="0.02" stop-color="#FFA67F"/>
<stop offset="1" stop-color="#FF8B7C"/>
</linearGradient>
<linearGradient id="paint4_linear_1_3" x1="93.0596" y1="182.151" x2="93.0596" y2="164.089" gradientUnits="userSpaceOnUse">
<stop offset="0.02" stop-color="#FFA67F"/>
<stop offset="1" stop-color="#FF8B7C"/>
</linearGradient>
<linearGradient id="paint5_linear_1_3" x1="148.202" y1="174.814" x2="148.202" y2="162.814" gradientUnits="userSpaceOnUse">
<stop offset="0.02" stop-color="white"/>
<stop offset="0.99" stop-color="#F29DC8"/>
</linearGradient>
<linearGradient id="paint6_linear_1_3" x1="93.1527" y1="178.326" x2="93.1527" y2="167.757" gradientUnits="userSpaceOnUse">
<stop offset="0.02" stop-color="white"/>
<stop offset="0.99" stop-color="#F29DC8"/>
</linearGradient>
<linearGradient id="paint7_linear_1_3" x1="121.867" y1="167.659" x2="113.873" y2="115.712" gradientUnits="userSpaceOnUse">
<stop stop-color="#3E2987"/>
<stop offset="0.57" stop-color="#2C2F90"/>
<stop offset="1" stop-color="#243294"/>
</linearGradient>
<linearGradient id="paint8_linear_1_3" x1="123.281" y1="321.59" x2="123.281" y2="213.776" gradientUnits="userSpaceOnUse">
<stop stop-color="#FF6686"/>
<stop offset="1" stop-color="#FF7C89"/>
</linearGradient>
<linearGradient id="paint9_linear_1_3" x1="127.547" y1="321.59" x2="127.547" y2="207.623" gradientUnits="userSpaceOnUse">
<stop stop-color="#2B2583"/>
<stop offset="1" stop-color="#482C97"/>
</linearGradient>
<linearGradient id="paint10_linear_1_3" x1="53.6533" y1="321.919" x2="53.6533" y2="235.802" gradientUnits="userSpaceOnUse">
<stop stop-color="#26258A"/>
<stop offset="1" stop-color="#3C2C95"/>
</linearGradient>
<linearGradient id="paint11_linear_1_3" x1="45.8144" y1="249.358" x2="45.8144" y2="163.406" gradientUnits="userSpaceOnUse">
<stop offset="0.02" stop-color="#FFC2A0"/>
<stop offset="1" stop-color="#FFA195"/>
</linearGradient>
<linearGradient id="paint12_linear_1_3" x1="40.5828" y1="278.82" x2="40.5828" y2="239.323" gradientUnits="userSpaceOnUse">
<stop stop-color="#FF6686"/>
<stop offset="1" stop-color="#FF7C89"/>
</linearGradient>
<linearGradient id="paint13_linear_1_3" x1="198.301" y1="321.919" x2="198.301" y2="233.063" gradientUnits="userSpaceOnUse">
<stop stop-color="#26258A"/>
<stop offset="1" stop-color="#3C2C95"/>
</linearGradient>
<linearGradient id="paint14_linear_1_3" x1="121.732" y1="144.094" x2="124.144" y2="144.094" gradientUnits="userSpaceOnUse">
<stop stop-color="#8453B8"/>
<stop offset="0.23" stop-color="#7755BA"/>
<stop offset="0.7" stop-color="#6157BC"/>
<stop offset="1" stop-color="#5958BD"/>
</linearGradient>
<linearGradient id="paint15_linear_1_3" x1="117.49" y1="169.172" x2="117.49" y2="146.594" gradientUnits="userSpaceOnUse">
<stop offset="0.02" stop-color="white"/>
<stop offset="0.99" stop-color="#F29DC8"/>
</linearGradient>
<linearGradient id="paint16_linear_1_3" x1="98.4608" y1="159.269" x2="109.77" y2="159.269" gradientUnits="userSpaceOnUse">
<stop offset="0.02" stop-color="white"/>
<stop offset="0.99" stop-color="#EA9DC8"/>
</linearGradient>
<linearGradient id="paint17_linear_1_3" x1="124.821" y1="156.077" x2="135.996" y2="156.077" gradientUnits="userSpaceOnUse">
<stop offset="0.02" stop-color="white"/>
<stop offset="0.99" stop-color="#EA9DC8"/>
</linearGradient>
<linearGradient id="paint18_linear_1_3" x1="122.24" y1="169.468" x2="126.507" y2="169.468" gradientUnits="userSpaceOnUse">
<stop offset="0.02" stop-color="white"/>
<stop offset="0.99" stop-color="#EA9DC8"/>
</linearGradient>
<linearGradient id="paint19_linear_1_3" x1="129.029" y1="176.747" x2="133.939" y2="176.747" gradientUnits="userSpaceOnUse">
<stop offset="0.02" stop-color="white"/>
<stop offset="0.99" stop-color="#F29DC8"/>
</linearGradient>
<linearGradient id="paint20_linear_1_3" x1="121.41" y1="188.517" x2="121.41" y2="184.528" gradientUnits="userSpaceOnUse">
<stop offset="0.02" stop-color="white"/>
<stop offset="0.99" stop-color="#F29DC8"/>
</linearGradient>
<linearGradient id="paint21_linear_1_3" x1="130.629" y1="160.692" x2="130.629" y2="156.497" gradientUnits="userSpaceOnUse">
<stop offset="0.02" stop-color="#E0B3D1"/>
<stop offset="0.99" stop-color="#C2798B"/>
</linearGradient>
<linearGradient id="paint22_linear_1_3" x1="104.649" y1="164.393" x2="104.649" y2="160.199" gradientUnits="userSpaceOnUse">
<stop offset="0.02" stop-color="#E0B3D1"/>
<stop offset="0.99" stop-color="#C2798B"/>
</linearGradient>
<linearGradient id="paint23_linear_1_3" x1="130.291" y1="149.39" x2="130.291" y2="141.446" gradientUnits="userSpaceOnUse">
<stop stop-color="#B877B8"/>
<stop offset="0.23" stop-color="#9A6DBA"/>
<stop offset="0.56" stop-color="#7762BB"/>
<stop offset="0.83" stop-color="#615BBD"/>
<stop offset="1" stop-color="#5958BD"/>
</linearGradient>
<linearGradient id="paint24_linear_1_3" x1="102.693" y1="152.656" x2="102.693" y2="143.74" gradientUnits="userSpaceOnUse">
<stop stop-color="#B877B8"/>
<stop offset="0.23" stop-color="#9A6DBA"/>
<stop offset="0.56" stop-color="#7762BB"/>
<stop offset="0.83" stop-color="#615BBD"/>
<stop offset="1" stop-color="#5958BD"/>
</linearGradient>
<linearGradient id="paint25_linear_1_3" x1="137.223" y1="145.072" x2="148.736" y2="145.072" gradientUnits="userSpaceOnUse">
<stop offset="0.02" stop-color="white"/>
<stop offset="0.99" stop-color="#C2798B"/>
</linearGradient>
<linearGradient id="paint26_linear_1_3" x1="89.2922" y1="147.31" x2="100.204" y2="147.31" gradientUnits="userSpaceOnUse">
<stop offset="0.01" stop-color="#C2798B"/>
<stop offset="0.98" stop-color="white"/>
</linearGradient>
<linearGradient id="paint27_linear_1_3" x1="88.6149" y1="139.085" x2="101.203" y2="139.085" gradientUnits="userSpaceOnUse">
<stop offset="0.01" stop-color="#C2798B"/>
<stop offset="0.98" stop-color="white"/>
</linearGradient>
<linearGradient id="paint28_linear_1_3" x1="123.501" y1="137.489" x2="121.404" y2="123.874" gradientUnits="userSpaceOnUse">
<stop stop-color="#3E2987"/>
<stop offset="0.57" stop-color="#2C2F90"/>
<stop offset="1" stop-color="#243294"/>
</linearGradient>
<linearGradient id="paint29_linear_1_3" x1="145.992" y1="141.406" x2="146.568" y2="132.123" gradientUnits="userSpaceOnUse">
<stop stop-color="#3E2987"/>
<stop offset="0.57" stop-color="#2C2F90"/>
<stop offset="1" stop-color="#243294"/>
</linearGradient>
<linearGradient id="paint30_linear_1_3" x1="111.725" y1="172.766" x2="116.44" y2="172.766" gradientUnits="userSpaceOnUse">
<stop offset="0.02" stop-color="white"/>
<stop offset="0.99" stop-color="#D172A6"/>
</linearGradient>
<linearGradient id="paint31_linear_1_3" x1="102.82" y1="173.004" x2="102.82" y2="153.438" gradientUnits="userSpaceOnUse">
<stop stop-color="#26258A"/>
<stop offset="1" stop-color="#3C2C95"/>
</linearGradient>
<linearGradient id="paint32_linear_1_3" x1="135.193" y1="168.982" x2="131.507" y2="149.452" gradientUnits="userSpaceOnUse">
<stop stop-color="#26258A"/>
<stop offset="1" stop-color="#3C2C95"/>
</linearGradient>
<linearGradient id="paint33_linear_1_3" x1="117.321" y1="157.451" x2="117.321" y2="154.144" gradientUnits="userSpaceOnUse">
<stop stop-color="#26258A"/>
<stop offset="1" stop-color="#3C2C95"/>
</linearGradient>
<linearGradient id="paint34_linear_1_3" x1="146.366" y1="160.199" x2="146.366" y2="152.196" gradientUnits="userSpaceOnUse">
<stop stop-color="#26258A"/>
<stop offset="1" stop-color="#3C2C95"/>
</linearGradient>
<linearGradient id="paint35_linear_1_3" x1="118.54" y1="139.899" x2="117.268" y2="131.638" gradientUnits="userSpaceOnUse">
<stop stop-color="#3E2987"/>
<stop offset="0.57" stop-color="#2C2F90"/>
<stop offset="1" stop-color="#243294"/>
</linearGradient>
<linearGradient id="paint36_linear_1_3" x1="115.442" y1="230.037" x2="115.442" y2="197.104" gradientUnits="userSpaceOnUse">
<stop offset="0.02" stop-color="white"/>
<stop offset="0.99" stop-color="#F29DC8"/>
</linearGradient>
<linearGradient id="paint37_linear_1_3" x1="92.7044" y1="321.696" x2="92.7044" y2="210.091" gradientUnits="userSpaceOnUse">
<stop stop-color="#38328A"/>
<stop offset="1" stop-color="#5C43A2"/>
</linearGradient>
<linearGradient id="paint38_linear_1_3" x1="153.57" y1="321.59" x2="153.57" y2="207.623" gradientUnits="userSpaceOnUse">
<stop stop-color="#38328A"/>
<stop offset="1" stop-color="#5C43A2"/>
</linearGradient>
<linearGradient id="paint39_linear_1_3" x1="113.241" y1="269.122" x2="113.241" y2="224.032" gradientUnits="userSpaceOnUse">
<stop offset="0.02" stop-color="white"/>
<stop offset="0.99" stop-color="#EA8CC1"/>
</linearGradient>
<linearGradient id="paint40_linear_1_3" x1="134.193" y1="259.54" x2="134.193" y2="226.764" gradientUnits="userSpaceOnUse">
<stop offset="0.02" stop-color="white"/>
<stop offset="0.99" stop-color="#EA8CC1"/>
</linearGradient>
<linearGradient id="paint41_linear_1_3" x1="38.3226" y1="217.683" x2="38.3226" y2="175.949" gradientUnits="userSpaceOnUse">
<stop offset="0.01" stop-color="#EA9DC8"/>
<stop offset="0.98" stop-color="#FFDBD6"/>
</linearGradient>
<linearGradient id="paint42_linear_1_3" x1="44.3161" y1="183.351" x2="44.3161" y2="171.845" gradientUnits="userSpaceOnUse">
<stop stop-color="#FFB595"/>
<stop offset="0.98" stop-color="#FFC290"/>
</linearGradient>
<linearGradient id="paint43_linear_1_3" x1="35.9777" y1="190.541" x2="35.9777" y2="179.774" gradientUnits="userSpaceOnUse">
<stop stop-color="#FFB595"/>
<stop offset="0.98" stop-color="#FFC290"/>
</linearGradient>
<linearGradient id="paint44_linear_1_3" x1="30.8477" y1="195.352" x2="30.8477" y2="189.668" gradientUnits="userSpaceOnUse">
<stop stop-color="#FFB595"/>
<stop offset="0.98" stop-color="#FFC290"/>
</linearGradient>
<linearGradient id="paint45_linear_1_3" x1="48.0323" y1="232.348" x2="48.0323" y2="218.842" gradientUnits="userSpaceOnUse">
<stop offset="0.02" stop-color="white"/>
<stop offset="0.99" stop-color="#EA9DC8"/>
</linearGradient>
<linearGradient id="paint46_linear_1_3" x1="43.9266" y1="217.905" x2="43.9266" y2="204.729" gradientUnits="userSpaceOnUse">
<stop offset="0.02" stop-color="white"/>
<stop offset="0.99" stop-color="#EA9DC8"/>
</linearGradient>
<linearGradient id="paint47_linear_1_3" x1="53.2724" y1="210.634" x2="53.2724" y2="197.104" gradientUnits="userSpaceOnUse">
<stop offset="0.01" stop-color="#EA9DC8"/>
<stop offset="0.98" stop-color="white"/>
</linearGradient>
<linearGradient id="paint48_linear_1_3" x1="69.9241" y1="258.282" x2="80.1921" y2="258.282" gradientUnits="userSpaceOnUse">
<stop offset="0.01" stop-color="#C2798B"/>
<stop offset="0.98" stop-color="white"/>
</linearGradient>
<linearGradient id="paint49_linear_1_3" x1="60.2309" y1="297.128" x2="60.2309" y2="269.122" gradientUnits="userSpaceOnUse">
<stop offset="0.02" stop-color="white"/>
<stop offset="0.99" stop-color="#C2798B"/>
</linearGradient>
<linearGradient id="paint50_linear_1_3" x1="24.7781" y1="280.374" x2="47.1773" y2="280.374" gradientUnits="userSpaceOnUse">
<stop offset="0.01" stop-color="#C2798B"/>
<stop offset="0.98" stop-color="white"/>
</linearGradient>
<linearGradient id="paint51_linear_1_3" x1="54.4321" y1="310.058" x2="54.4321" y2="257.698" gradientUnits="userSpaceOnUse">
<stop offset="0.02" stop-color="white"/>
<stop offset="0.99" stop-color="#C2798B"/>
</linearGradient>
<linearGradient id="paint52_linear_1_3" x1="173.006" y1="249.406" x2="185.171" y2="249.406" gradientUnits="userSpaceOnUse">
<stop offset="0.02" stop-color="white"/>
<stop offset="0.99" stop-color="#C2798B"/>
</linearGradient>
<linearGradient id="paint53_linear_1_3" x1="176.029" y1="279.748" x2="180.727" y2="279.748" gradientUnits="userSpaceOnUse">
<stop offset="0.01" stop-color="#C2798B"/>
<stop offset="0.98" stop-color="white"/>
</linearGradient>
<linearGradient id="paint54_linear_1_3" x1="159.826" y1="297.063" x2="173.006" y2="297.063" gradientUnits="userSpaceOnUse">
<stop offset="0.01" stop-color="#C2798B"/>
<stop offset="0.98" stop-color="white"/>
</linearGradient>
<linearGradient id="paint55_linear_1_3" x1="178.593" y1="296.75" x2="212.116" y2="296.75" gradientUnits="userSpaceOnUse">
<stop offset="0.01" stop-color="#C2798B"/>
<stop offset="0.98" stop-color="white"/>
</linearGradient>
<linearGradient id="paint56_linear_1_3" x1="184.638" y1="297.375" x2="211.693" y2="297.375" gradientUnits="userSpaceOnUse">
<stop offset="0.01" stop-color="#C2798B"/>
<stop offset="0.98" stop-color="white"/>
</linearGradient>
<linearGradient id="paint57_linear_1_3" x1="174.852" y1="297.375" x2="174.852" y2="254.58" gradientUnits="userSpaceOnUse">
<stop offset="0.01" stop-color="#C2798B"/>
<stop offset="0.98" stop-color="white"/>
</linearGradient>
<linearGradient id="paint58_linear_1_3" x1="193.475" y1="311.308" x2="193.475" y2="300.401" gradientUnits="userSpaceOnUse">
<stop offset="0.02" stop-color="#FFA67F"/>
<stop offset="1" stop-color="#FF8B7C"/>
</linearGradient>
<linearGradient id="paint59_linear_1_3" x1="202.161" y1="322.174" x2="202.161" y2="297.457" gradientUnits="userSpaceOnUse">
<stop stop-color="#2B2583"/>
<stop offset="1" stop-color="#231868"/>
</linearGradient>
<linearGradient id="paint60_linear_1_3" x1="177.222" y1="321.285" x2="177.222" y2="311.284" gradientUnits="userSpaceOnUse">
<stop offset="0.02" stop-color="#FFC2A0"/>
<stop offset="1" stop-color="#FFA195"/>
</linearGradient>
<linearGradient id="paint61_linear_1_3" x1="194.254" y1="322.215" x2="194.254" y2="305.065" gradientUnits="userSpaceOnUse">
<stop stop-color="#C50B79"/>
<stop offset="1" stop-color="#E51160"/>
</linearGradient>
<linearGradient id="paint62_linear_1_3" x1="197.471" y1="319.467" x2="197.471" y2="297.383" gradientUnits="userSpaceOnUse">
<stop offset="0.02" stop-color="#FFC2A0"/>
<stop offset="1" stop-color="#FFA195"/>
</linearGradient>
<linearGradient id="paint63_linear_1_3" x1="120.225" y1="321.919" x2="120.225" y2="254.967" gradientUnits="userSpaceOnUse">
<stop stop-color="#C9B6E9"/>
<stop offset="1" stop-color="#BBABD1"/>
</linearGradient>
<linearGradient id="paint64_linear_1_3" x1="120.225" y1="260.239" x2="120.225" y2="253.116" gradientUnits="userSpaceOnUse">
<stop stop-color="#D8CAEF"/>
<stop offset="1" stop-color="#EADEF4"/>
</linearGradient>
<linearGradient id="paint65_linear_1_3" x1="203.659" y1="310.025" x2="203.659" y2="303.774" gradientUnits="userSpaceOnUse">
<stop offset="0.02" stop-color="white"/>
<stop offset="0.99" stop-color="#EA9DC8"/>
</linearGradient>
<linearGradient id="paint66_linear_1_3" x1="209.263" y1="315.149" x2="209.263" y2="310.683" gradientUnits="userSpaceOnUse">
<stop offset="0.02" stop-color="white"/>
<stop offset="0.99" stop-color="#EA9DC8"/>
</linearGradient>
<linearGradient id="paint67_linear_1_3" x1="155.94" y1="235.802" x2="155.94" y2="216.087" gradientUnits="userSpaceOnUse">
<stop offset="0.02" stop-color="white"/>
<stop offset="0.99" stop-color="#C2798B"/>
</linearGradient>
<linearGradient id="paint68_linear_1_3" x1="94.5072" y1="238.065" x2="94.5072" y2="212.542" gradientUnits="userSpaceOnUse">
<stop offset="0.02" stop-color="white"/>
<stop offset="0.99" stop-color="#C2798B"/>
</linearGradient>
<linearGradient id="paint69_linear_1_3" x1="39.6094" y1="218.177" x2="39.6094" y2="200.337" gradientUnits="userSpaceOnUse">
<stop offset="0.02" stop-color="white"/>
<stop offset="0.99" stop-color="#F29DC8"/>
</linearGradient>
<linearGradient id="paint70_linear_1_3" x1="124.458" y1="145.253" x2="133.98" y2="145.253" gradientUnits="userSpaceOnUse">
<stop offset="0.01" stop-color="#F29DC8"/>
<stop offset="0.98" stop-color="white"/>
</linearGradient>
<linearGradient id="paint71_linear_1_3" x1="126.227" y1="146.093" x2="136.791" y2="146.093" gradientUnits="userSpaceOnUse">
<stop offset="0.01" stop-color="#F29DC8"/>
<stop offset="0.98" stop-color="white"/>
</linearGradient>
<linearGradient id="paint72_linear_1_3" x1="102.735" y1="147.261" x2="109.144" y2="147.261" gradientUnits="userSpaceOnUse">
<stop offset="0.02" stop-color="white"/>
<stop offset="0.99" stop-color="#F29DC8"/>
</linearGradient>
<linearGradient id="paint73_linear_1_3" x1="99.1711" y1="148.067" x2="108.136" y2="148.067" gradientUnits="userSpaceOnUse">
<stop offset="0.02" stop-color="white"/>
<stop offset="0.99" stop-color="#F29DC8"/>
</linearGradient>
<linearGradient id="paint74_linear_1_3" x1="42.496" y1="183.105" x2="42.496" y2="179.774" gradientUnits="userSpaceOnUse">
<stop offset="0.01" stop-color="#EA9DC8"/>
<stop offset="0.98" stop-color="#FFDBD6"/>
</linearGradient>
<linearGradient id="paint75_linear_1_3" x1="32.9132" y1="190.31" x2="32.9132" y2="189.602" gradientUnits="userSpaceOnUse">
<stop offset="0.01" stop-color="#EA9DC8"/>
<stop offset="0.98" stop-color="#FFDBD6"/>
</linearGradient>
<linearGradient id="paint76_linear_1_3" x1="253.923" y1="118.484" x2="253.923" y2="109.586" gradientUnits="userSpaceOnUse">
<stop offset="0.01" stop-color="#791D36"/>
<stop offset="0.98" stop-color="#A64021"/>
</linearGradient>
<linearGradient id="paint77_linear_1_3" x1="253.133" y1="52.2909" x2="253.133" y2="42.1633" gradientUnits="userSpaceOnUse">
<stop offset="0.01" stop-color="#533F9C"/>
<stop offset="1" stop-color="#292686"/>
</linearGradient>
<linearGradient id="paint78_linear_1_3" x1="251.95" y1="203.022" x2="263.584" y2="203.022" gradientUnits="userSpaceOnUse">
<stop offset="0.02" stop-color="#523E63"/>
<stop offset="0.99" stop-color="#24052E"/>
</linearGradient>
<linearGradient id="paint79_linear_1_3" x1="253.923" y1="116.311" x2="253.923" y2="46.8105" gradientUnits="userSpaceOnUse">
<stop stop-color="#FFC7CB"/>
<stop offset="1" stop-color="white"/>
</linearGradient>
<linearGradient id="paint80_linear_1_3" x1="253.903" y1="95.5153" x2="253.903" y2="71.7385" gradientUnits="userSpaceOnUse">
<stop offset="0.01" stop-color="#25267A"/>
<stop offset="1" stop-color="#2C278D"/>
</linearGradient>
<linearGradient id="paint81_linear_1_3" x1="253.922" y1="116.311" x2="253.922" y2="95.215" gradientUnits="userSpaceOnUse">
<stop stop-color="#FF7688"/>
<stop offset="1" stop-color="#533E9C"/>
</linearGradient>
<linearGradient id="paint82_linear_1_3" x1="241.422" y1="152.888" x2="241.422" y2="111.776" gradientUnits="userSpaceOnUse">
<stop offset="0.02" stop-color="#523E63"/>
<stop offset="0.99" stop-color="#24052E"/>
</linearGradient>
<linearGradient id="paint83_linear_1_3" x1="253.923" y1="116.311" x2="253.923" y2="44.5428" gradientUnits="userSpaceOnUse">
<stop stop-color="#892F74"/>
<stop offset="1" stop-color="#D69386"/>
</linearGradient>
<linearGradient id="paint84_linear_1_3" x1="169.307" y1="329" x2="169.307" y2="321.919" gradientUnits="userSpaceOnUse">
<stop stop-color="#1E1D1F"/>
<stop offset="0.557292" stop-color="#1E1D1F"/>
</linearGradient>
<clipPath id="clip0_1_3">
<rect width="338.614" height="329" fill="white"/>
</clipPath>
</defs>
</svg>
